<svg width="189" height="43" viewBox="0 0 189 43" fill="none" xmlns="http://www.w3.org/2000/svg">
<path d="M121.276 18V9.693L121.601 10.031H118.169V8.9H125.67V10.031H122.238L122.55 9.693V18H121.276ZM126.877 18V11.11H130.075C130.881 11.11 131.514 11.266 131.973 11.578C132.441 11.8813 132.675 12.3147 132.675 12.878C132.675 13.4413 132.454 13.879 132.012 14.191C131.579 14.4943 131.002 14.646 130.283 14.646L130.478 14.308C131.301 14.308 131.912 14.4597 132.311 14.763C132.71 15.0663 132.909 15.5127 132.909 16.102C132.909 16.7 132.684 17.168 132.233 17.506C131.791 17.8353 131.111 18 130.192 18H126.877ZM128.099 17.038H130.101C130.621 17.038 131.011 16.96 131.271 16.804C131.531 16.6393 131.661 16.3793 131.661 16.024C131.661 15.66 131.54 15.3957 131.297 15.231C131.063 15.0577 130.69 14.971 130.179 14.971H128.099V17.038ZM128.099 14.074H129.971C130.448 14.074 130.807 13.9873 131.05 13.814C131.301 13.632 131.427 13.3807 131.427 13.06C131.427 12.7307 131.301 12.4837 131.05 12.319C130.807 12.1543 130.448 12.072 129.971 12.072H128.099V14.074ZM137.813 18.078C137.12 18.078 136.505 17.9263 135.967 17.623C135.43 17.3197 135.005 16.9037 134.693 16.375C134.381 15.8377 134.225 15.231 134.225 14.555C134.225 13.8703 134.381 13.2637 134.693 12.735C135.005 12.2063 135.43 11.7947 135.967 11.5C136.505 11.1967 137.12 11.045 137.813 11.045C138.498 11.045 139.109 11.1967 139.646 11.5C140.192 11.7947 140.617 12.2063 140.92 12.735C141.232 13.255 141.388 13.8617 141.388 14.555C141.388 15.2397 141.232 15.8463 140.92 16.375C140.617 16.9037 140.192 17.3197 139.646 17.623C139.109 17.9263 138.498 18.078 137.813 18.078ZM137.813 16.986C138.255 16.986 138.65 16.8863 138.996 16.687C139.352 16.4877 139.629 16.206 139.828 15.842C140.028 15.4693 140.127 15.0403 140.127 14.555C140.127 14.061 140.028 13.6363 139.828 13.281C139.629 12.917 139.352 12.6353 138.996 12.436C138.65 12.2367 138.255 12.137 137.813 12.137C137.371 12.137 136.977 12.2367 136.63 12.436C136.284 12.6353 136.006 12.917 135.798 13.281C135.59 13.6363 135.486 14.061 135.486 14.555C135.486 15.0403 135.59 15.4693 135.798 15.842C136.006 16.206 136.284 16.4877 136.63 16.687C136.977 16.8863 137.371 16.986 137.813 16.986ZM147.369 18V15.582L147.564 15.816H145.367C144.448 15.816 143.729 15.621 143.209 15.231C142.698 14.841 142.442 14.2733 142.442 13.528C142.442 12.7307 142.715 12.1283 143.261 11.721C143.816 11.3137 144.552 11.11 145.471 11.11H148.487V18H147.369ZM142.377 18L144.249 15.361H145.536L143.716 18H142.377ZM147.369 15.192V11.851L147.564 12.202H145.51C144.938 12.202 144.496 12.3103 144.184 12.527C143.872 12.735 143.716 13.0817 143.716 13.567C143.716 14.4683 144.297 14.919 145.458 14.919H147.564L147.369 15.192ZM154.413 18V11.11H155.661V16.128L159.886 11.11H161.017V18H159.769V12.982L155.557 18H154.413ZM163.439 18V11.11H168.509V12.202H164.388L164.687 11.916V18H163.439ZM173.44 18.078C172.868 18.078 172.344 17.948 171.867 17.688C171.399 17.4193 171.022 17.025 170.736 16.505C170.459 15.985 170.32 15.335 170.32 14.555C170.32 13.775 170.454 13.125 170.723 12.605C171 12.085 171.373 11.695 171.841 11.435C172.318 11.175 172.851 11.045 173.44 11.045C174.116 11.045 174.714 11.1923 175.234 11.487C175.754 11.7817 176.166 12.1933 176.469 12.722C176.772 13.242 176.924 13.853 176.924 14.555C176.924 15.257 176.772 15.8723 176.469 16.401C176.166 16.9297 175.754 17.3413 175.234 17.636C174.714 17.9307 174.116 18.078 173.44 18.078ZM169.787 20.522V11.11H170.983V12.969L170.905 14.568L171.035 16.167V20.522H169.787ZM173.336 16.986C173.778 16.986 174.172 16.8863 174.519 16.687C174.874 16.4877 175.152 16.206 175.351 15.842C175.559 15.4693 175.663 15.0403 175.663 14.555C175.663 14.061 175.559 13.6363 175.351 13.281C175.152 12.917 174.874 12.6353 174.519 12.436C174.172 12.2367 173.778 12.137 173.336 12.137C172.903 12.137 172.508 12.2367 172.153 12.436C171.806 12.6353 171.529 12.917 171.321 13.281C171.122 13.6363 171.022 14.061 171.022 14.555C171.022 15.0403 171.122 15.4693 171.321 15.842C171.529 16.206 171.806 16.4877 172.153 16.687C172.508 16.8863 172.903 16.986 173.336 16.986ZM182.899 18V16.544L182.834 16.271V13.788C182.834 13.2593 182.678 12.852 182.366 12.566C182.063 12.2713 181.603 12.124 180.988 12.124C180.581 12.124 180.182 12.1933 179.792 12.332C179.402 12.462 179.073 12.6397 178.804 12.865L178.284 11.929C178.639 11.643 179.064 11.4263 179.558 11.279C180.061 11.123 180.585 11.045 181.131 11.045C182.076 11.045 182.804 11.2747 183.315 11.734C183.826 12.1933 184.082 12.8953 184.082 13.84V18H182.899ZM180.637 18.078C180.126 18.078 179.675 17.9913 179.285 17.818C178.904 17.6447 178.609 17.4063 178.401 17.103C178.193 16.791 178.089 16.44 178.089 16.05C178.089 15.6773 178.176 15.3393 178.349 15.036C178.531 14.7327 178.821 14.49 179.22 14.308C179.627 14.126 180.173 14.035 180.858 14.035H183.042V14.932H180.91C180.286 14.932 179.866 15.036 179.649 15.244C179.432 15.452 179.324 15.7033 179.324 15.998C179.324 16.336 179.458 16.609 179.727 16.817C179.996 17.0163 180.368 17.116 180.845 17.116C181.313 17.116 181.72 17.012 182.067 16.804C182.422 16.596 182.678 16.2927 182.834 15.894L183.081 16.752C182.916 17.1593 182.626 17.4843 182.21 17.727C181.794 17.961 181.27 18.078 180.637 18.078ZM185.809 19.924L186.459 17.298L186.628 18.052C186.377 18.052 186.164 17.974 185.991 17.818C185.826 17.662 185.744 17.4497 185.744 17.181C185.744 16.921 185.826 16.7087 185.991 16.544C186.164 16.3793 186.372 16.297 186.615 16.297C186.866 16.297 187.07 16.3837 187.226 16.557C187.382 16.7217 187.46 16.9297 187.46 17.181C187.46 17.2677 187.451 17.3543 187.434 17.441C187.425 17.519 187.404 17.6143 187.369 17.727C187.343 17.831 187.3 17.961 187.239 18.117L186.628 19.924H185.809ZM121.276 35V26.693L121.601 27.031H118.169V25.9H125.67V27.031H122.238L122.55 26.693V35H121.276ZM126.877 35V28.11H130.075C130.881 28.11 131.514 28.266 131.973 28.578C132.441 28.8813 132.675 29.3147 132.675 29.878C132.675 30.4413 132.454 30.879 132.012 31.191C131.579 31.4943 131.002 31.646 130.283 31.646L130.478 31.308C131.301 31.308 131.912 31.4597 132.311 31.763C132.71 32.0663 132.909 32.5127 132.909 33.102C132.909 33.7 132.684 34.168 132.233 34.506C131.791 34.8353 131.111 35 130.192 35H126.877ZM128.099 34.038H130.101C130.621 34.038 131.011 33.96 131.271 33.804C131.531 33.6393 131.661 33.3793 131.661 33.024C131.661 32.66 131.54 32.3957 131.297 32.231C131.063 32.0577 130.69 31.971 130.179 31.971H128.099V34.038ZM128.099 31.074H129.971C130.448 31.074 130.807 30.9873 131.05 30.814C131.301 30.632 131.427 30.3807 131.427 30.06C131.427 29.7307 131.301 29.4837 131.05 29.319C130.807 29.1543 130.448 29.072 129.971 29.072H128.099V31.074ZM137.813 35.078C137.12 35.078 136.505 34.9263 135.967 34.623C135.43 34.3197 135.005 33.9037 134.693 33.375C134.381 32.8377 134.225 32.231 134.225 31.555C134.225 30.8703 134.381 30.2637 134.693 29.735C135.005 29.2063 135.43 28.7947 135.967 28.5C136.505 28.1967 137.12 28.045 137.813 28.045C138.498 28.045 139.109 28.1967 139.646 28.5C140.192 28.7947 140.617 29.2063 140.92 29.735C141.232 30.255 141.388 30.8617 141.388 31.555C141.388 32.2397 141.232 32.8463 140.92 33.375C140.617 33.9037 140.192 34.3197 139.646 34.623C139.109 34.9263 138.498 35.078 137.813 35.078ZM137.813 33.986C138.255 33.986 138.65 33.8863 138.996 33.687C139.352 33.4877 139.629 33.206 139.828 32.842C140.028 32.4693 140.127 32.0403 140.127 31.555C140.127 31.061 140.028 30.6363 139.828 30.281C139.629 29.917 139.352 29.6353 138.996 29.436C138.65 29.2367 138.255 29.137 137.813 29.137C137.371 29.137 136.977 29.2367 136.63 29.436C136.284 29.6353 136.006 29.917 135.798 30.281C135.59 30.6363 135.486 31.061 135.486 31.555C135.486 32.0403 135.59 32.4693 135.798 32.842C136.006 33.206 136.284 33.4877 136.63 33.687C136.977 33.8863 137.371 33.986 137.813 33.986ZM143.19 35V28.11H144.438V33.128L148.663 28.11H149.794V35H148.546V29.982L144.334 35H143.19ZM146.414 27.213C145.782 27.213 145.283 27.0613 144.919 26.758C144.564 26.446 144.382 25.9997 144.373 25.419H145.218C145.227 25.7483 145.335 26.0083 145.543 26.199C145.76 26.3897 146.046 26.485 146.401 26.485C146.757 26.485 147.043 26.3897 147.259 26.199C147.476 26.0083 147.589 25.7483 147.597 25.419H148.468C148.46 25.9997 148.273 26.446 147.909 26.758C147.545 27.0613 147.047 27.213 146.414 27.213ZM155.708 35V28.11H156.995L159.959 33.206H159.439L162.481 28.11H163.651V35H162.52V29.514L162.728 29.631L159.946 34.22H159.4L156.605 29.54L156.852 29.488V35H155.708ZM166.08 35V28.11H167.328V33.128L171.553 28.11H172.684V35H171.436V29.982L167.224 35H166.08ZM178.759 35.078C178.187 35.078 177.663 34.948 177.186 34.688C176.718 34.4193 176.341 34.025 176.055 33.505C175.778 32.985 175.639 32.335 175.639 31.555C175.639 30.775 175.774 30.125 176.042 29.605C176.32 29.085 176.692 28.695 177.16 28.435C177.637 28.175 178.17 28.045 178.759 28.045C179.435 28.045 180.033 28.1923 180.553 28.487C181.073 28.7817 181.485 29.1933 181.788 29.722C182.092 30.242 182.243 30.853 182.243 31.555C182.243 32.257 182.092 32.8723 181.788 33.401C181.485 33.9297 181.073 34.3413 180.553 34.636C180.033 34.9307 179.435 35.078 178.759 35.078ZM175.106 37.522V28.11H176.302V29.969L176.224 31.568L176.354 33.167V37.522H175.106ZM178.655 33.986C179.097 33.986 179.492 33.8863 179.838 33.687C180.194 33.4877 180.471 33.206 180.67 32.842C180.878 32.4693 180.982 32.0403 180.982 31.555C180.982 31.061 180.878 30.6363 180.67 30.281C180.471 29.917 180.194 29.6353 179.838 29.436C179.492 29.2367 179.097 29.137 178.655 29.137C178.222 29.137 177.828 29.2367 177.472 29.436C177.126 29.6353 176.848 29.917 176.64 30.281C176.441 30.6363 176.341 31.061 176.341 31.555C176.341 32.0403 176.441 32.4693 176.64 32.842C176.848 33.206 177.126 33.4877 177.472 33.687C177.828 33.8863 178.222 33.986 178.655 33.986ZM184.096 32.127L183.862 25.9H185.331L185.084 32.127H184.096ZM184.603 35.078C184.36 35.078 184.156 34.9957 183.992 34.831C183.827 34.6663 183.745 34.4713 183.745 34.246C183.745 34.0033 183.827 33.804 183.992 33.648C184.156 33.492 184.36 33.414 184.603 33.414C184.845 33.414 185.045 33.492 185.201 33.648C185.357 33.804 185.435 34.0033 185.435 34.246C185.435 34.4713 185.357 34.6663 185.201 34.831C185.045 34.9957 184.845 35.078 184.603 35.078Z" fill="black"/>
<path d="M4.824 20.056C5.688 18.712 7.208 18.04 9.384 18.04V20.896C9.128 20.848 8.896 20.824 8.688 20.824C7.52 20.824 6.608 21.168 5.952 21.856C5.296 22.528 4.968 23.504 4.968 24.784V31H1.968V18.184H4.824V20.056ZM14.6918 31.168C13.3958 31.168 12.2278 30.888 11.1878 30.328C10.1478 29.768 9.33175 28.992 8.73975 28C8.16375 26.992 7.87575 25.856 7.87575 24.592C7.87575 23.328 8.16375 22.2 8.73975 21.208C9.33175 20.216 10.1478 19.44 11.1878 18.88C12.2278 18.32 13.3958 18.04 14.6918 18.04C16.0038 18.04 17.1798 18.32 18.2198 18.88C19.2598 19.44 20.0678 20.216 20.6438 21.208C21.2358 22.2 21.5318 23.328 21.5318 24.592C21.5318 25.856 21.2358 26.992 20.6438 28C20.0678 28.992 19.2598 29.768 18.2198 30.328C17.1798 30.888 16.0038 31.168 14.6918 31.168ZM14.6918 28.6C15.7958 28.6 16.7078 28.232 17.4278 27.496C18.1478 26.76 18.5078 25.792 18.5078 24.592C18.5078 23.392 18.1478 22.424 17.4278 21.688C16.7078 20.952 15.7958 20.584 14.6918 20.584C13.5878 20.584 12.6758 20.952 11.9557 21.688C11.2517 22.424 10.8997 23.392 10.8997 24.592C10.8997 25.792 11.2517 26.76 11.9557 27.496C12.6758 28.232 13.5878 28.6 14.6918 28.6ZM28.6245 18.04C29.8725 18.04 30.9845 18.312 31.9605 18.856C32.9525 19.4 33.7285 20.168 34.2885 21.16C34.8485 22.152 35.1285 23.296 35.1285 24.592C35.1285 25.888 34.8485 27.04 34.2885 28.048C33.7285 29.04 32.9525 29.808 31.9605 30.352C30.9845 30.896 29.8725 31.168 28.6245 31.168C27.7445 31.168 26.9365 31.016 26.2005 30.712C25.4805 30.408 24.8725 29.952 24.3765 29.344V31H21.5205V13.192H24.5205V19.744C25.0325 19.184 25.6325 18.76 26.3205 18.472C27.0245 18.184 27.7925 18.04 28.6245 18.04ZM28.2885 28.6C29.3925 28.6 30.2965 28.232 31.0005 27.496C31.7205 26.76 32.0805 25.792 32.0805 24.592C32.0805 23.392 31.7205 22.424 31.0005 21.688C30.2965 20.952 29.3925 20.584 28.2885 20.584C27.5685 20.584 26.9205 20.752 26.3445 21.088C25.7685 21.408 25.3125 21.872 24.9765 22.48C24.6405 23.088 24.4725 23.792 24.4725 24.592C24.4725 25.392 24.6405 26.096 24.9765 26.704C25.3125 27.312 25.7685 27.784 26.3445 28.12C26.9205 28.44 27.5685 28.6 28.2885 28.6ZM39.3176 31.168C37.9896 31.168 36.9496 30.808 36.1976 30.088C35.4616 29.352 35.0936 28.32 35.0936 26.992V13.192H38.0936V26.776C38.0936 28.056 38.6936 28.696 39.8936 28.696C40.2936 28.696 40.6536 28.616 40.9736 28.456L41.1176 30.856C40.5576 31.064 39.9576 31.168 39.3176 31.168ZM45.8018 31.168C44.5057 31.168 43.3377 30.888 42.2977 30.328C41.2577 29.768 40.4417 28.992 39.8497 28C39.2737 26.992 38.9857 25.856 38.9857 24.592C38.9857 23.328 39.2737 22.2 39.8497 21.208C40.4417 20.216 41.2577 19.44 42.2977 18.88C43.3377 18.32 44.5057 18.04 45.8018 18.04C47.1137 18.04 48.2897 18.32 49.3297 18.88C50.3698 19.44 51.1778 20.216 51.7538 21.208C52.3458 22.2 52.6418 23.328 52.6418 24.592C52.6418 25.856 52.3458 26.992 51.7538 28C51.1778 28.992 50.3698 29.768 49.3297 30.328C48.2897 30.888 47.1137 31.168 45.8018 31.168ZM45.8018 28.6C46.9058 28.6 47.8178 28.232 48.5378 27.496C49.2578 26.76 49.6178 25.792 49.6178 24.592C49.6178 23.392 49.2578 22.424 48.5378 21.688C47.8178 20.952 46.9058 20.584 45.8018 20.584C44.6978 20.584 43.7857 20.952 43.0657 21.688C42.3617 22.424 42.0097 23.392 42.0097 24.592C42.0097 25.792 42.3617 26.76 43.0657 27.496C43.7857 28.232 44.6978 28.6 45.8018 28.6ZM60.3686 31L57.0806 26.56L53.7686 31H50.4566L55.4486 24.496L50.6726 18.184H54.0086L57.1526 22.384L60.2966 18.184H63.5366L58.7366 24.448L63.7526 31H60.3686ZM67.3104 31.168C65.9824 31.168 64.9424 30.808 64.1904 30.088C63.4544 29.352 63.0864 28.32 63.0864 26.992V13.192H66.0864V26.776C66.0864 28.056 66.6864 28.696 67.8864 28.696C68.2864 28.696 68.6464 28.616 68.9664 28.456L69.1104 30.856C68.5504 31.064 67.9504 31.168 67.3104 31.168ZM80.5626 18.184V31H77.7066V29.344C77.2106 29.952 76.5946 30.408 75.8586 30.712C75.1386 31.016 74.3386 31.168 73.4586 31.168C72.2106 31.168 71.0906 30.896 70.0986 30.352C69.1226 29.808 68.3546 29.04 67.7946 28.048C67.2506 27.056 66.9786 25.904 66.9786 24.592C66.9786 23.28 67.2506 22.136 67.7946 21.16C68.3546 20.168 69.1226 19.4 70.0986 18.856C71.0906 18.312 72.2106 18.04 73.4586 18.04C74.2906 18.04 75.0506 18.184 75.7386 18.472C76.4426 18.76 77.0506 19.184 77.5626 19.744V18.184H80.5626ZM73.7946 28.6C74.8986 28.6 75.8106 28.232 76.5306 27.496C77.2506 26.76 77.6106 25.792 77.6106 24.592C77.6106 23.392 77.2506 22.424 76.5306 21.688C75.8106 20.952 74.8986 20.584 73.7946 20.584C72.6906 20.584 71.7786 20.952 71.0586 21.688C70.3546 22.424 70.0026 23.392 70.0026 24.592C70.0026 25.792 70.3546 26.76 71.0586 27.496C71.7786 28.232 72.6906 28.6 73.7946 28.6ZM88.8797 18.04C90.4957 18.04 91.7917 18.512 92.7677 19.456C93.7437 20.4 94.2317 21.8 94.2317 23.656V31H91.2317V24.04C91.2317 22.92 90.9677 22.08 90.4397 21.52C89.9117 20.944 89.1597 20.656 88.1837 20.656C87.0797 20.656 86.2077 20.992 85.5677 21.664C84.9277 22.32 84.6077 23.272 84.6077 24.52V31H81.6077V18.184H84.4637V19.84C84.9597 19.248 85.5837 18.8 86.3357 18.496C87.0877 18.192 87.9357 18.04 88.8797 18.04ZM107.827 13.192V31H104.947V29.344C104.451 29.952 103.835 30.408 103.099 30.712C102.379 31.016 101.579 31.168 100.699 31.168C99.4666 31.168 98.3546 30.896 97.3626 30.352C96.3866 29.808 95.6186 29.04 95.0586 28.048C94.4986 27.04 94.2186 25.888 94.2186 24.592C94.2186 23.296 94.4986 22.152 95.0586 21.16C95.6186 20.168 96.3866 19.4 97.3626 18.856C98.3546 18.312 99.4666 18.04 100.699 18.04C101.547 18.04 102.323 18.184 103.027 18.472C103.731 18.76 104.331 19.192 104.827 19.768V13.192H107.827ZM101.059 28.6C101.779 28.6 102.427 28.44 103.003 28.12C103.579 27.784 104.035 27.312 104.371 26.704C104.707 26.096 104.875 25.392 104.875 24.592C104.875 23.792 104.707 23.088 104.371 22.48C104.035 21.872 103.579 21.408 103.003 21.088C102.427 20.752 101.779 20.584 101.059 20.584C100.339 20.584 99.6906 20.752 99.1146 21.088C98.5386 21.408 98.0826 21.872 97.7466 22.48C97.4106 23.088 97.2426 23.792 97.2426 24.592C97.2426 25.392 97.4106 26.096 97.7466 26.704C98.0826 27.312 98.5386 27.784 99.1146 28.12C99.6906 28.44 100.339 28.6 101.059 28.6Z" fill="black"/>
<line x1="114.5" x2="114.5" y2="43" stroke="black" stroke-width="5"/>
</svg>
