<svg width="203" height="28" viewBox="0 0 203 28" fill="none" xmlns="http://www.w3.org/2000/svg">
<path d="M5.956 10.188C6.628 9.252 7.528 8.544 8.656 8.064C9.808 7.584 11.128 7.344 12.616 7.344V12.528C11.992 12.48 11.572 12.456 11.356 12.456C9.748 12.456 8.488 12.912 7.576 13.824C6.664 14.712 6.208 16.056 6.208 17.856V27H0.592V7.632H5.956V10.188ZM24.9955 27.288C22.9555 27.288 21.1195 26.868 19.4875 26.028C17.8795 25.164 16.6195 23.976 15.7075 22.464C14.7955 20.952 14.3395 19.236 14.3395 17.316C14.3395 15.396 14.7955 13.68 15.7075 12.168C16.6195 10.656 17.8795 9.48 19.4875 8.64C21.1195 7.776 22.9555 7.344 24.9955 7.344C27.0355 7.344 28.8595 7.776 30.4675 8.64C32.0755 9.48 33.3355 10.656 34.2475 12.168C35.1595 13.68 35.6155 15.396 35.6155 17.316C35.6155 19.236 35.1595 20.952 34.2475 22.464C33.3355 23.976 32.0755 25.164 30.4675 26.028C28.8595 26.868 27.0355 27.288 24.9955 27.288ZM24.9955 22.68C26.4355 22.68 27.6115 22.2 28.5235 21.24C29.4595 20.256 29.9275 18.948 29.9275 17.316C29.9275 15.684 29.4595 14.388 28.5235 13.428C27.6115 12.444 26.4355 11.952 24.9955 11.952C23.5555 11.952 22.3675 12.444 21.4315 13.428C20.4955 14.388 20.0275 15.684 20.0275 17.316C20.0275 18.948 20.4955 20.256 21.4315 21.24C22.3675 22.2 23.5555 22.68 24.9955 22.68ZM50.8173 7.344C52.6173 7.344 54.2493 7.764 55.7133 8.604C57.2013 9.42 58.3653 10.584 59.2053 12.096C60.0453 13.584 60.4653 15.324 60.4653 17.316C60.4653 19.308 60.0453 21.06 59.2053 22.572C58.3653 24.06 57.2013 25.224 55.7133 26.064C54.2493 26.88 52.6173 27.288 50.8173 27.288C48.1533 27.288 46.1253 26.448 44.7333 24.768V27H39.3693V0.287998H44.9853V9.684C46.4013 8.124 48.3453 7.344 50.8173 7.344ZM49.8453 22.68C51.2853 22.68 52.4613 22.2 53.3733 21.24C54.3093 20.256 54.7773 18.948 54.7773 17.316C54.7773 15.684 54.3093 14.388 53.3733 13.428C52.4613 12.444 51.2853 11.952 49.8453 11.952C48.4053 11.952 47.2173 12.444 46.2813 13.428C45.3693 14.388 44.9133 15.684 44.9133 17.316C44.9133 18.948 45.3693 20.256 46.2813 21.24C47.2173 22.2 48.4053 22.68 49.8453 22.68ZM71.1728 27.288C68.9888 27.288 67.2848 26.712 66.0608 25.56C64.8368 24.384 64.2248 22.728 64.2248 20.592V0.287998H69.8408V20.268C69.8408 21.084 70.0448 21.72 70.4528 22.176C70.8848 22.608 71.4848 22.824 72.2528 22.824C72.5408 22.824 72.8288 22.788 73.1168 22.716C73.4288 22.644 73.6688 22.56 73.8368 22.464L74.0888 26.82C73.1528 27.132 72.1808 27.288 71.1728 27.288ZM85.7103 27.288C83.6703 27.288 81.8343 26.868 80.2023 26.028C78.5943 25.164 77.3343 23.976 76.4223 22.464C75.5103 20.952 75.0543 19.236 75.0543 17.316C75.0543 15.396 75.5103 13.68 76.4223 12.168C77.3343 10.656 78.5943 9.48 80.2023 8.64C81.8343 7.776 83.6703 7.344 85.7103 7.344C87.7503 7.344 89.5743 7.776 91.1823 8.64C92.7903 9.48 94.0503 10.656 94.9623 12.168C95.8743 13.68 96.3303 15.396 96.3303 17.316C96.3303 19.236 95.8743 20.952 94.9623 22.464C94.0503 23.976 92.7903 25.164 91.1823 26.028C89.5743 26.868 87.7503 27.288 85.7103 27.288ZM85.7103 22.68C87.1503 22.68 88.3263 22.2 89.2383 21.24C90.1743 20.256 90.6423 18.948 90.6423 17.316C90.6423 15.684 90.1743 14.388 89.2383 13.428C88.3263 12.444 87.1503 11.952 85.7103 11.952C84.2703 11.952 83.0823 12.444 82.1463 13.428C81.2103 14.388 80.7423 15.684 80.7423 17.316C80.7423 18.948 81.2103 20.256 82.1463 21.24C83.0823 22.2 84.2703 22.68 85.7103 22.68ZM111.799 27L107.551 21.06L103.159 27H97.0385L104.491 17.244L97.2905 7.632H103.591L107.695 13.284L111.907 7.632H117.883L110.683 17.1L118.171 27H111.799ZM127.845 27.288C125.661 27.288 123.957 26.712 122.733 25.56C121.509 24.384 120.897 22.728 120.897 20.592V0.287998H126.513V20.268C126.513 21.084 126.717 21.72 127.125 22.176C127.557 22.608 128.157 22.824 128.925 22.824C129.213 22.824 129.501 22.788 129.789 22.716C130.101 22.644 130.341 22.56 130.509 22.464L130.761 26.82C129.825 27.132 128.853 27.288 127.845 27.288ZM152.822 7.632V27H147.458V24.768C146.066 26.448 144.05 27.288 141.41 27.288C139.586 27.288 137.93 26.88 136.442 26.064C134.978 25.248 133.826 24.084 132.986 22.572C132.146 21.06 131.726 19.308 131.726 17.316C131.726 15.324 132.146 13.572 132.986 12.06C133.826 10.548 134.978 9.384 136.442 8.568C137.93 7.752 139.586 7.344 141.41 7.344C143.882 7.344 145.814 8.124 147.206 9.684V7.632H152.822ZM142.382 22.68C143.798 22.68 144.974 22.2 145.91 21.24C146.846 20.256 147.314 18.948 147.314 17.316C147.314 15.684 146.846 14.388 145.91 13.428C144.974 12.444 143.798 11.952 142.382 11.952C140.942 11.952 139.754 12.444 138.818 13.428C137.882 14.388 137.414 15.684 137.414 17.316C137.414 18.948 137.882 20.256 138.818 21.24C139.754 22.2 140.942 22.68 142.382 22.68ZM169.794 7.344C172.194 7.344 174.126 8.064 175.59 9.504C177.078 10.944 177.822 13.08 177.822 15.912V27H172.206V16.776C172.206 15.24 171.87 14.1 171.198 13.356C170.526 12.588 169.554 12.204 168.282 12.204C166.866 12.204 165.738 12.648 164.898 13.536C164.058 14.4 163.638 15.696 163.638 17.424V27H158.022V7.632H163.386V9.9C164.13 9.084 165.054 8.46 166.158 8.028C167.262 7.572 168.474 7.344 169.794 7.344ZM202.851 0.287998V27H197.487V24.768C196.095 26.448 194.079 27.288 191.439 27.288C189.615 27.288 187.959 26.88 186.471 26.064C185.007 25.248 183.855 24.084 183.015 22.572C182.175 21.06 181.755 19.308 181.755 17.316C181.755 15.324 182.175 13.572 183.015 12.06C183.855 10.548 185.007 9.384 186.471 8.568C187.959 7.752 189.615 7.344 191.439 7.344C193.911 7.344 195.843 8.124 197.235 9.684V0.287998H202.851ZM192.411 22.68C193.827 22.68 195.003 22.2 195.939 21.24C196.875 20.256 197.343 18.948 197.343 17.316C197.343 15.684 196.875 14.388 195.939 13.428C195.003 12.444 193.827 11.952 192.411 11.952C190.971 11.952 189.783 12.444 188.847 13.428C187.911 14.388 187.443 15.684 187.443 17.316C187.443 18.948 187.911 20.256 188.847 21.24C189.783 22.2 190.971 22.68 192.411 22.68Z" fill="black"/>
</svg>
